<mxfile host="app.diagrams.net" modified="2021-10-22T07:23:38.038Z" agent="5.0 (Windows NT 10.0; Win64; x64) AppleWebKit/537.36 (KHTML, like Gecko) Chrome/94.0.4606.81 Safari/537.36" etag="vttaVlXHSe1fY6ny8fA_" version="15.5.5" type="github">
  <diagram id="R2lEEEUBdFMjLlhIrx00" name="Page-1">
    <mxGraphModel dx="1422" dy="736" grid="1" gridSize="10" guides="1" tooltips="1" connect="1" arrows="1" fold="1" page="1" pageScale="1" pageWidth="850" pageHeight="1100" math="0" shadow="0" extFonts="Permanent Marker^https://fonts.googleapis.com/css?family=Permanent+Marker">
      <root>
        <mxCell id="0" />
        <mxCell id="1" parent="0" />
        <mxCell id="UKzEz-BU8U3r9BaCkb_5-96" value="" style="rounded=0;whiteSpace=wrap;html=1;" vertex="1" parent="1">
          <mxGeometry x="38" y="240" width="530" height="190" as="geometry" />
        </mxCell>
        <mxCell id="UKzEz-BU8U3r9BaCkb_5-90" value="" style="rounded=0;whiteSpace=wrap;html=1;" vertex="1" parent="1">
          <mxGeometry x="674" y="419" width="138" height="160" as="geometry" />
        </mxCell>
        <mxCell id="UKzEz-BU8U3r9BaCkb_5-3" value="Trainer" style="swimlane;fontStyle=0;childLayout=stackLayout;horizontal=1;startSize=26;horizontalStack=0;resizeParent=1;resizeParentMax=0;resizeLast=0;collapsible=1;marginBottom=0;align=center;fontSize=14;" vertex="1" parent="1">
          <mxGeometry x="58" y="260" width="130" height="116" as="geometry" />
        </mxCell>
        <mxCell id="UKzEz-BU8U3r9BaCkb_5-4" value="Nama" style="text;strokeColor=none;fillColor=none;spacingLeft=4;spacingRight=4;overflow=hidden;rotatable=0;points=[[0,0.5],[1,0.5]];portConstraint=eastwest;fontSize=12;fontStyle=4" vertex="1" parent="UKzEz-BU8U3r9BaCkb_5-3">
          <mxGeometry y="26" width="130" height="30" as="geometry" />
        </mxCell>
        <mxCell id="UKzEz-BU8U3r9BaCkb_5-5" value="Jenis_kelamin" style="text;strokeColor=none;fillColor=none;spacingLeft=4;spacingRight=4;overflow=hidden;rotatable=0;points=[[0,0.5],[1,0.5]];portConstraint=eastwest;fontSize=12;" vertex="1" parent="UKzEz-BU8U3r9BaCkb_5-3">
          <mxGeometry y="56" width="130" height="30" as="geometry" />
        </mxCell>
        <mxCell id="UKzEz-BU8U3r9BaCkb_5-7" value="Exp" style="text;strokeColor=none;fillColor=none;spacingLeft=4;spacingRight=4;overflow=hidden;rotatable=0;points=[[0,0.5],[1,0.5]];portConstraint=eastwest;fontSize=12;" vertex="1" parent="UKzEz-BU8U3r9BaCkb_5-3">
          <mxGeometry y="86" width="130" height="30" as="geometry" />
        </mxCell>
        <mxCell id="UKzEz-BU8U3r9BaCkb_5-9" value="Pokemon" style="swimlane;fontStyle=0;childLayout=stackLayout;horizontal=1;startSize=26;horizontalStack=0;resizeParent=1;resizeParentMax=0;resizeLast=0;collapsible=1;marginBottom=0;align=center;fontSize=14;" vertex="1" parent="1">
          <mxGeometry x="412" y="260" width="130" height="146" as="geometry" />
        </mxCell>
        <mxCell id="UKzEz-BU8U3r9BaCkb_5-10" value="IDPokemon" style="text;strokeColor=none;fillColor=none;spacingLeft=4;spacingRight=4;overflow=hidden;rotatable=0;points=[[0,0.5],[1,0.5]];portConstraint=eastwest;fontSize=12;fontStyle=4" vertex="1" parent="UKzEz-BU8U3r9BaCkb_5-9">
          <mxGeometry y="26" width="130" height="30" as="geometry" />
        </mxCell>
        <mxCell id="UKzEz-BU8U3r9BaCkb_5-11" value="Nama" style="text;strokeColor=none;fillColor=none;spacingLeft=4;spacingRight=4;overflow=hidden;rotatable=0;points=[[0,0.5],[1,0.5]];portConstraint=eastwest;fontSize=12;" vertex="1" parent="UKzEz-BU8U3r9BaCkb_5-9">
          <mxGeometry y="56" width="130" height="30" as="geometry" />
        </mxCell>
        <mxCell id="UKzEz-BU8U3r9BaCkb_5-12" value="{ Type }" style="text;strokeColor=none;fillColor=none;spacingLeft=4;spacingRight=4;overflow=hidden;rotatable=0;points=[[0,0.5],[1,0.5]];portConstraint=eastwest;fontSize=12;" vertex="1" parent="UKzEz-BU8U3r9BaCkb_5-9">
          <mxGeometry y="86" width="130" height="30" as="geometry" />
        </mxCell>
        <mxCell id="UKzEz-BU8U3r9BaCkb_5-13" value="Rarity" style="text;strokeColor=none;fillColor=none;spacingLeft=4;spacingRight=4;overflow=hidden;rotatable=0;points=[[0,0.5],[1,0.5]];portConstraint=eastwest;fontSize=12;" vertex="1" parent="UKzEz-BU8U3r9BaCkb_5-9">
          <mxGeometry y="116" width="130" height="30" as="geometry" />
        </mxCell>
        <mxCell id="UKzEz-BU8U3r9BaCkb_5-14" value="Kekuatan" style="swimlane;fontStyle=0;childLayout=stackLayout;horizontal=1;startSize=26;horizontalStack=0;resizeParent=1;resizeParentMax=0;resizeLast=0;collapsible=1;marginBottom=0;align=center;fontSize=14;" vertex="1" parent="1">
          <mxGeometry x="678" y="425" width="130" height="146" as="geometry" />
        </mxCell>
        <mxCell id="UKzEz-BU8U3r9BaCkb_5-15" value="No urut" style="text;strokeColor=none;fillColor=none;spacingLeft=4;spacingRight=4;overflow=hidden;rotatable=0;points=[[0,0.5],[1,0.5]];portConstraint=eastwest;fontSize=12;fontStyle=0" vertex="1" parent="UKzEz-BU8U3r9BaCkb_5-14">
          <mxGeometry y="26" width="130" height="30" as="geometry" />
        </mxCell>
        <mxCell id="UKzEz-BU8U3r9BaCkb_5-85" value="" style="endArrow=none;html=1;rounded=0;dashed=1;" edge="1" parent="UKzEz-BU8U3r9BaCkb_5-14">
          <mxGeometry relative="1" as="geometry">
            <mxPoint x="5" y="46" as="sourcePoint" />
            <mxPoint x="40" y="46" as="targetPoint" />
          </mxGeometry>
        </mxCell>
        <mxCell id="UKzEz-BU8U3r9BaCkb_5-92" value="Nama" style="text;strokeColor=none;fillColor=none;spacingLeft=4;spacingRight=4;overflow=hidden;rotatable=0;points=[[0,0.5],[1,0.5]];portConstraint=eastwest;fontSize=12;fontStyle=0" vertex="1" parent="UKzEz-BU8U3r9BaCkb_5-14">
          <mxGeometry y="56" width="130" height="30" as="geometry" />
        </mxCell>
        <mxCell id="UKzEz-BU8U3r9BaCkb_5-16" value="Tipe" style="text;strokeColor=none;fillColor=none;spacingLeft=4;spacingRight=4;overflow=hidden;rotatable=0;points=[[0,0.5],[1,0.5]];portConstraint=eastwest;fontSize=12;" vertex="1" parent="UKzEz-BU8U3r9BaCkb_5-14">
          <mxGeometry y="86" width="130" height="30" as="geometry" />
        </mxCell>
        <mxCell id="UKzEz-BU8U3r9BaCkb_5-18" value="Besar_serangan" style="text;strokeColor=none;fillColor=none;spacingLeft=4;spacingRight=4;overflow=hidden;rotatable=0;points=[[0,0.5],[1,0.5]];portConstraint=eastwest;fontSize=12;" vertex="1" parent="UKzEz-BU8U3r9BaCkb_5-14">
          <mxGeometry y="116" width="130" height="30" as="geometry" />
        </mxCell>
        <mxCell id="UKzEz-BU8U3r9BaCkb_5-21" style="edgeStyle=orthogonalEdgeStyle;rounded=0;orthogonalLoop=1;jettySize=auto;html=1;exitX=1;exitY=0.5;exitDx=0;exitDy=0;entryX=0;entryY=0.5;entryDx=0;entryDy=0;endArrow=none;endFill=0;" edge="1" parent="1" source="UKzEz-BU8U3r9BaCkb_5-19" target="UKzEz-BU8U3r9BaCkb_5-11">
          <mxGeometry relative="1" as="geometry" />
        </mxCell>
        <mxCell id="UKzEz-BU8U3r9BaCkb_5-68" style="edgeStyle=orthogonalEdgeStyle;rounded=0;orthogonalLoop=1;jettySize=auto;html=1;exitX=0;exitY=0.5;exitDx=0;exitDy=0;entryX=1;entryY=0.5;entryDx=0;entryDy=0;endArrow=classic;endFill=1;" edge="1" parent="1" source="UKzEz-BU8U3r9BaCkb_5-19" target="UKzEz-BU8U3r9BaCkb_5-5">
          <mxGeometry relative="1" as="geometry" />
        </mxCell>
        <mxCell id="UKzEz-BU8U3r9BaCkb_5-19" value="Trainer&lt;br&gt;Pokemon" style="shape=rhombus;perimeter=rhombusPerimeter;whiteSpace=wrap;html=1;align=center;" vertex="1" parent="1">
          <mxGeometry x="248" y="301" width="120" height="60" as="geometry" />
        </mxCell>
        <mxCell id="UKzEz-BU8U3r9BaCkb_5-27" style="edgeStyle=orthogonalEdgeStyle;rounded=0;orthogonalLoop=1;jettySize=auto;html=1;exitX=0;exitY=0.5;exitDx=0;exitDy=0;entryX=1;entryY=0.5;entryDx=0;entryDy=0;endArrow=classic;endFill=1;" edge="1" parent="1" source="UKzEz-BU8U3r9BaCkb_5-89" target="UKzEz-BU8U3r9BaCkb_5-11">
          <mxGeometry relative="1" as="geometry">
            <mxPoint x="598" y="331" as="sourcePoint" />
          </mxGeometry>
        </mxCell>
        <mxCell id="UKzEz-BU8U3r9BaCkb_5-31" value="" style="rounded=0;whiteSpace=wrap;html=1;" vertex="1" parent="1">
          <mxGeometry x="412" y="20" width="120" height="60" as="geometry" />
        </mxCell>
        <mxCell id="UKzEz-BU8U3r9BaCkb_5-32" value="Waktu_pertarungan" style="text;strokeColor=none;fillColor=none;spacingLeft=4;spacingRight=4;overflow=hidden;rotatable=0;points=[[0,0.5],[1,0.5]];portConstraint=eastwest;fontSize=12;" vertex="1" parent="1">
          <mxGeometry x="412" y="24" width="130" height="30" as="geometry" />
        </mxCell>
        <mxCell id="UKzEz-BU8U3r9BaCkb_5-33" value="Tempat_pertarungan" style="text;strokeColor=none;fillColor=none;spacingLeft=4;spacingRight=4;overflow=hidden;rotatable=0;points=[[0,0.5],[1,0.5]];portConstraint=eastwest;fontSize=12;" vertex="1" parent="1">
          <mxGeometry x="411" y="47" width="130" height="30" as="geometry" />
        </mxCell>
        <mxCell id="UKzEz-BU8U3r9BaCkb_5-34" value="Tim 1" style="text;strokeColor=none;fillColor=none;spacingLeft=4;spacingRight=4;overflow=hidden;rotatable=0;points=[[0,0.5],[1,0.5]];portConstraint=eastwest;fontSize=12;" vertex="1" parent="1">
          <mxGeometry x="138" y="150" width="130" height="30" as="geometry" />
        </mxCell>
        <mxCell id="UKzEz-BU8U3r9BaCkb_5-35" value="Tim 2" style="text;strokeColor=none;fillColor=none;spacingLeft=4;spacingRight=4;overflow=hidden;rotatable=0;points=[[0,0.5],[1,0.5]];portConstraint=eastwest;fontSize=12;" vertex="1" parent="1">
          <mxGeometry x="450" y="150" width="130" height="30" as="geometry" />
        </mxCell>
        <mxCell id="UKzEz-BU8U3r9BaCkb_5-39" value="Barang" style="swimlane;fontStyle=0;childLayout=stackLayout;horizontal=1;startSize=26;horizontalStack=0;resizeParent=1;resizeParentMax=0;resizeLast=0;collapsible=1;marginBottom=0;align=center;fontSize=14;" vertex="1" parent="1">
          <mxGeometry x="113" y="546" width="130" height="146" as="geometry" />
        </mxCell>
        <mxCell id="UKzEz-BU8U3r9BaCkb_5-40" value="IDBarang" style="text;strokeColor=none;fillColor=none;spacingLeft=4;spacingRight=4;overflow=hidden;rotatable=0;points=[[0,0.5],[1,0.5]];portConstraint=eastwest;fontSize=12;fontStyle=4" vertex="1" parent="UKzEz-BU8U3r9BaCkb_5-39">
          <mxGeometry y="26" width="130" height="30" as="geometry" />
        </mxCell>
        <mxCell id="UKzEz-BU8U3r9BaCkb_5-41" value="Nama" style="text;strokeColor=none;fillColor=none;spacingLeft=4;spacingRight=4;overflow=hidden;rotatable=0;points=[[0,0.5],[1,0.5]];portConstraint=eastwest;fontSize=12;" vertex="1" parent="UKzEz-BU8U3r9BaCkb_5-39">
          <mxGeometry y="56" width="130" height="30" as="geometry" />
        </mxCell>
        <mxCell id="UKzEz-BU8U3r9BaCkb_5-42" value="Tipe" style="text;strokeColor=none;fillColor=none;spacingLeft=4;spacingRight=4;overflow=hidden;rotatable=0;points=[[0,0.5],[1,0.5]];portConstraint=eastwest;fontSize=12;" vertex="1" parent="UKzEz-BU8U3r9BaCkb_5-39">
          <mxGeometry y="86" width="130" height="30" as="geometry" />
        </mxCell>
        <mxCell id="UKzEz-BU8U3r9BaCkb_5-43" value="Deskripsi_kegunaan" style="text;strokeColor=none;fillColor=none;spacingLeft=4;spacingRight=4;overflow=hidden;rotatable=0;points=[[0,0.5],[1,0.5]];portConstraint=eastwest;fontSize=12;" vertex="1" parent="UKzEz-BU8U3r9BaCkb_5-39">
          <mxGeometry y="116" width="130" height="30" as="geometry" />
        </mxCell>
        <mxCell id="UKzEz-BU8U3r9BaCkb_5-46" style="edgeStyle=orthogonalEdgeStyle;rounded=0;orthogonalLoop=1;jettySize=auto;html=1;exitX=0.5;exitY=0;exitDx=0;exitDy=0;entryX=0.5;entryY=1;entryDx=0;entryDy=0;endArrow=none;endFill=0;" edge="1" parent="1" source="UKzEz-BU8U3r9BaCkb_5-45" target="UKzEz-BU8U3r9BaCkb_5-3">
          <mxGeometry relative="1" as="geometry" />
        </mxCell>
        <mxCell id="UKzEz-BU8U3r9BaCkb_5-65" style="edgeStyle=orthogonalEdgeStyle;rounded=0;orthogonalLoop=1;jettySize=auto;html=1;exitX=1;exitY=0.5;exitDx=0;exitDy=0;entryX=0.5;entryY=0;entryDx=0;entryDy=0;endArrow=none;endFill=0;" edge="1" parent="1" source="UKzEz-BU8U3r9BaCkb_5-45" target="UKzEz-BU8U3r9BaCkb_5-39">
          <mxGeometry relative="1" as="geometry">
            <Array as="points">
              <mxPoint x="208" y="480" />
              <mxPoint x="208" y="530" />
              <mxPoint x="178" y="530" />
            </Array>
          </mxGeometry>
        </mxCell>
        <mxCell id="UKzEz-BU8U3r9BaCkb_5-45" value="Barang&lt;br&gt;Trainer" style="shape=rhombus;perimeter=rhombusPerimeter;whiteSpace=wrap;html=1;align=center;" vertex="1" parent="1">
          <mxGeometry x="63" y="450" width="120" height="60" as="geometry" />
        </mxCell>
        <mxCell id="UKzEz-BU8U3r9BaCkb_5-57" style="edgeStyle=orthogonalEdgeStyle;rounded=0;orthogonalLoop=1;jettySize=auto;html=1;exitX=0.5;exitY=0;exitDx=0;exitDy=0;endArrow=none;endFill=0;" edge="1" parent="1" source="UKzEz-BU8U3r9BaCkb_5-48" target="UKzEz-BU8U3r9BaCkb_5-53">
          <mxGeometry relative="1" as="geometry" />
        </mxCell>
        <mxCell id="UKzEz-BU8U3r9BaCkb_5-61" style="edgeStyle=orthogonalEdgeStyle;rounded=0;orthogonalLoop=1;jettySize=auto;html=1;exitX=0.5;exitY=1;exitDx=0;exitDy=0;endArrow=none;endFill=0;" edge="1" parent="1" source="UKzEz-BU8U3r9BaCkb_5-48" target="UKzEz-BU8U3r9BaCkb_5-60">
          <mxGeometry relative="1" as="geometry" />
        </mxCell>
        <mxCell id="UKzEz-BU8U3r9BaCkb_5-48" value="ISA" style="triangle;whiteSpace=wrap;html=1;" vertex="1" parent="1">
          <mxGeometry x="301" y="577" width="60" height="80" as="geometry" />
        </mxCell>
        <mxCell id="UKzEz-BU8U3r9BaCkb_5-49" style="edgeStyle=orthogonalEdgeStyle;rounded=0;orthogonalLoop=1;jettySize=auto;html=1;exitX=1;exitY=0.5;exitDx=0;exitDy=0;entryX=0;entryY=0.5;entryDx=0;entryDy=0;endArrow=none;endFill=0;" edge="1" parent="1" source="UKzEz-BU8U3r9BaCkb_5-41" target="UKzEz-BU8U3r9BaCkb_5-48">
          <mxGeometry relative="1" as="geometry" />
        </mxCell>
        <mxCell id="UKzEz-BU8U3r9BaCkb_5-52" value="Batu Kekuatan" style="swimlane;fontStyle=0;childLayout=stackLayout;horizontal=1;startSize=26;horizontalStack=0;resizeParent=1;resizeParentMax=0;resizeLast=0;collapsible=1;marginBottom=0;align=center;fontSize=14;" vertex="1" parent="1">
          <mxGeometry x="398" y="502" width="130" height="56" as="geometry" />
        </mxCell>
        <mxCell id="UKzEz-BU8U3r9BaCkb_5-53" value="Durasi" style="text;strokeColor=none;fillColor=none;spacingLeft=4;spacingRight=4;overflow=hidden;rotatable=0;points=[[0,0.5],[1,0.5]];portConstraint=eastwest;fontSize=12;fontStyle=0" vertex="1" parent="UKzEz-BU8U3r9BaCkb_5-52">
          <mxGeometry y="26" width="130" height="30" as="geometry" />
        </mxCell>
        <mxCell id="UKzEz-BU8U3r9BaCkb_5-58" value="Pokeball" style="swimlane;fontStyle=0;childLayout=stackLayout;horizontal=1;startSize=26;horizontalStack=0;resizeParent=1;resizeParentMax=0;resizeLast=0;collapsible=1;marginBottom=0;align=center;fontSize=14;" vertex="1" parent="1">
          <mxGeometry x="398" y="646" width="130" height="56" as="geometry" />
        </mxCell>
        <mxCell id="UKzEz-BU8U3r9BaCkb_5-60" value="Level" style="text;strokeColor=none;fillColor=none;spacingLeft=4;spacingRight=4;overflow=hidden;rotatable=0;points=[[0,0.5],[1,0.5]];portConstraint=eastwest;fontSize=12;" vertex="1" parent="UKzEz-BU8U3r9BaCkb_5-58">
          <mxGeometry y="26" width="130" height="30" as="geometry" />
        </mxCell>
        <mxCell id="UKzEz-BU8U3r9BaCkb_5-62" value="Tipe =&#xa;&quot;Batu Kekuatan&quot;" style="text;strokeColor=none;fillColor=none;spacingLeft=4;spacingRight=4;overflow=hidden;rotatable=0;points=[[0,0.5],[1,0.5]];portConstraint=eastwest;fontSize=12;" vertex="1" parent="1">
          <mxGeometry x="277.6" y="502" width="130" height="30" as="geometry" />
        </mxCell>
        <mxCell id="UKzEz-BU8U3r9BaCkb_5-63" value="Tipe = &quot;Pokeball&quot;" style="text;strokeColor=none;fillColor=none;spacingLeft=4;spacingRight=4;overflow=hidden;rotatable=0;points=[[0,0.5],[1,0.5]];portConstraint=eastwest;fontSize=12;" vertex="1" parent="1">
          <mxGeometry x="268" y="688" width="130" height="30" as="geometry" />
        </mxCell>
        <mxCell id="UKzEz-BU8U3r9BaCkb_5-64" value="disjoint" style="text;strokeColor=none;fillColor=none;spacingLeft=4;spacingRight=4;overflow=hidden;rotatable=0;points=[[0,0.5],[1,0.5]];portConstraint=eastwest;fontSize=12;" vertex="1" parent="1">
          <mxGeometry x="361" y="602" width="130" height="30" as="geometry" />
        </mxCell>
        <mxCell id="UKzEz-BU8U3r9BaCkb_5-69" style="edgeStyle=orthogonalEdgeStyle;rounded=0;orthogonalLoop=1;jettySize=auto;html=1;exitX=0.04;exitY=0.547;exitDx=0;exitDy=0;entryX=1;entryY=0.5;entryDx=0;entryDy=0;endArrow=classic;endFill=1;exitPerimeter=0;" edge="1" parent="1" source="UKzEz-BU8U3r9BaCkb_5-19">
          <mxGeometry relative="1" as="geometry">
            <mxPoint x="246" y="334" as="sourcePoint" />
            <mxPoint x="186" y="334" as="targetPoint" />
            <Array as="points" />
          </mxGeometry>
        </mxCell>
        <mxCell id="UKzEz-BU8U3r9BaCkb_5-70" value="Asumsi:&#xa;1. satu pokemon hanya bisa dimiliki oleh satu trainer&#xa;2. ada trainer yang tidak memiliki barang apa pun, dan ada barang yang tidak dimiliki trainer mana pun" style="text;strokeColor=none;fillColor=none;spacingLeft=4;spacingRight=4;overflow=hidden;rotatable=0;points=[[0,0.5],[1,0.5]];portConstraint=eastwest;fontSize=12;" vertex="1" parent="1">
          <mxGeometry x="38" y="750" width="650" height="70" as="geometry" />
        </mxCell>
        <mxCell id="UKzEz-BU8U3r9BaCkb_5-91" style="edgeStyle=orthogonalEdgeStyle;rounded=0;orthogonalLoop=1;jettySize=auto;html=1;exitX=0.5;exitY=1;exitDx=0;exitDy=0;entryX=-0.027;entryY=0.329;entryDx=0;entryDy=0;entryPerimeter=0;endArrow=none;endFill=0;shape=link;" edge="1" parent="1" source="UKzEz-BU8U3r9BaCkb_5-89" target="UKzEz-BU8U3r9BaCkb_5-16">
          <mxGeometry relative="1" as="geometry" />
        </mxCell>
        <mxCell id="UKzEz-BU8U3r9BaCkb_5-89" value="Kekuatan &lt;br&gt;pokemon" style="shape=rhombus;double=1;perimeter=rhombusPerimeter;whiteSpace=wrap;html=1;align=center;" vertex="1" parent="1">
          <mxGeometry x="598" y="301" width="120" height="60" as="geometry" />
        </mxCell>
        <mxCell id="UKzEz-BU8U3r9BaCkb_5-98" style="edgeStyle=orthogonalEdgeStyle;rounded=0;orthogonalLoop=1;jettySize=auto;html=1;exitX=0;exitY=0.5;exitDx=0;exitDy=0;entryX=0.276;entryY=-0.007;entryDx=0;entryDy=0;entryPerimeter=0;endArrow=none;endFill=0;" edge="1" parent="1" source="UKzEz-BU8U3r9BaCkb_5-97" target="UKzEz-BU8U3r9BaCkb_5-96">
          <mxGeometry relative="1" as="geometry" />
        </mxCell>
        <mxCell id="UKzEz-BU8U3r9BaCkb_5-99" style="edgeStyle=orthogonalEdgeStyle;rounded=0;orthogonalLoop=1;jettySize=auto;html=1;exitX=1;exitY=0.5;exitDx=0;exitDy=0;entryX=0.75;entryY=0;entryDx=0;entryDy=0;endArrow=none;endFill=0;" edge="1" parent="1" source="UKzEz-BU8U3r9BaCkb_5-97" target="UKzEz-BU8U3r9BaCkb_5-96">
          <mxGeometry relative="1" as="geometry">
            <Array as="points">
              <mxPoint x="436" y="120" />
            </Array>
          </mxGeometry>
        </mxCell>
        <mxCell id="UKzEz-BU8U3r9BaCkb_5-100" style="edgeStyle=orthogonalEdgeStyle;rounded=0;orthogonalLoop=1;jettySize=auto;html=1;exitX=0.5;exitY=0;exitDx=0;exitDy=0;entryX=0.01;entryY=0.092;entryDx=0;entryDy=0;entryPerimeter=0;endArrow=none;endFill=0;dashed=1;" edge="1" parent="1" source="UKzEz-BU8U3r9BaCkb_5-97" target="UKzEz-BU8U3r9BaCkb_5-33">
          <mxGeometry relative="1" as="geometry" />
        </mxCell>
        <mxCell id="UKzEz-BU8U3r9BaCkb_5-97" value="Pertarungan" style="shape=rhombus;perimeter=rhombusPerimeter;whiteSpace=wrap;html=1;align=center;" vertex="1" parent="1">
          <mxGeometry x="257" y="90.00000000000011" width="120" height="60" as="geometry" />
        </mxCell>
      </root>
    </mxGraphModel>
  </diagram>
</mxfile>
